<?xml version="1.0" encoding="utf-8"?>
<svg id="master-artboard" viewBox="0 0 328.3923034667969 322.1603088378906" version="1.1" xmlns="http://www.w3.org/2000/svg" x="0px" y="0px" style="enable-background:new 0 0 1400 980;" width="328.3923034667969px" height="322.1603088378906px"><rect id="ee-background" x="0" y="0" width="328.3923034667969" height="322.1603088378906" style="fill: white; fill-opacity: 0; pointer-events: none;"/>




<path class="st0" d="M458.9,103.6c0,0-0.4,0.3-1.2,1c-0.4,0.3-0.9,0.7-1.4,1.2c-0.6,0.5-1.3,1-1.9,1.6c-2.6,2.3-6.5,6.1-10.8,11.5&#10;&#9;&#9;c-2.2,2.7-4.3,5.8-6.5,9.3c-2.1,3.6-4.2,7.5-6,12c-1.8,4.4-3.4,9.3-4.6,14.5c-1.2,5.2-1.9,10.9-2.2,16.8c0,1.5-0.1,3.2-0.1,4.6&#10;&#9;&#9;c0.1,1.5,0,2.9,0.2,4.5c0.1,1.5,0.2,3.1,0.4,4.7c0.2,1.6,0.4,3.1,0.7,4.7c1.1,6.3,2.8,12.7,5.4,19.1c2.5,6.3,5.9,12.5,10.1,18.4&#10;&#9;&#9;c2,3,4.4,5.8,6.8,8.5c2.5,2.7,5.1,5.4,7.9,7.8c11.2,9.9,25.5,17.2,40.9,20.5c1,0.2,1.9,0.4,2.9,0.6c1,0.2,1.9,0.4,2.9,0.5&#10;&#9;&#9;c2,0.2,3.9,0.6,5.9,0.7l2.9,0.2l3.1,0.1l1.6,0l1.5,0l3-0.1c8-0.4,16-1.8,23.7-4.2c15.4-4.8,29.5-13.9,40.4-25.6&#10;&#9;&#9;c5.4-5.9,10.1-12.4,13.8-19.3c3.7-6.9,6.6-14.2,8.3-21.7c1.8-7.5,2.7-14.9,2.8-22.4c0-7.3-0.8-14.6-2.4-21.5&#10;&#9;&#9;c-1.6-6.9-3.9-13.4-6.8-19.4c-2.9-6-6.3-11.5-10-16.4c-7.5-9.9-16.2-17.5-24.8-22.8c-4.3-2.7-8.4-5-12.5-6.7c-1-0.5-2-0.9-3-1.3&#10;&#9;&#9;c-1-0.4-1.9-0.8-2.9-1.1c-1-0.3-1.9-0.6-2.8-1c-0.9-0.3-1.8-0.6-2.7-0.8c-7-2.1-12.7-3-16.5-3.4c-1.9-0.3-3.4-0.3-4.4-0.4&#10;&#9;&#9;c-1-0.1-1.5-0.1-1.5-0.1s0.5,0,1.5,0.1c1,0.1,2.5,0.1,4.5,0.3c3.9,0.3,9.6,1.1,16.7,3c0.9,0.2,1.8,0.5,2.7,0.8&#10;&#9;&#9;c0.9,0.3,1.9,0.6,2.8,0.9c1,0.3,1.9,0.7,2.9,1.1c1,0.4,2,0.7,3,1.2c4.1,1.7,8.3,3.9,12.7,6.5c8.8,5.2,17.8,12.7,25.7,22.6&#10;&#9;&#9;c3.9,4.9,7.5,10.5,10.6,16.6c3.1,6.1,5.6,12.7,7.4,19.8c1.8,7.1,2.8,14.5,3,22.2c0.1,7.6-0.6,15.5-2.4,23.2&#10;&#9;&#9;c-1.7,7.8-4.5,15.5-8.2,22.8c-3.7,7.3-8.5,14.3-14,20.6c-11.2,12.6-25.8,22.5-42.1,28.1c-8.1,2.8-16.7,4.4-25.2,5l-3.3,0.1&#10;&#9;&#9;l-1.6,0.1l-1.6,0l-3.1,0l-3.3-0.2c-2.1-0.1-4.3-0.4-6.4-0.6c-1.1-0.1-2.1-0.3-3.2-0.5c-1-0.2-2.1-0.3-3.1-0.5&#10;&#9;&#9;c-16.7-3.2-32.3-10.8-44.8-21.3c-3.2-2.6-6.1-5.4-8.8-8.3c-2.7-3-5.3-6-7.6-9.1c-4.7-6.3-8.6-13-11.5-19.9&#10;&#9;&#9;c-6-13.8-8.4-28.2-8.2-41.3c0.1-6.7,0.8-12.9,2-18.8c1.2-5.9,2.9-11.4,4.8-16.4c1.9-5,4.2-9.5,6.5-13.6c2.4-4,4.7-7.6,7.1-10.7&#10;&#9;&#9;c0.6-0.8,1.2-1.5,1.7-2.2c0.6-0.7,1.2-1.4,1.7-2c1.1-1.3,2.1-2.6,3.2-3.6c1-1.1,1.9-2.1,2.9-3c0.9-0.9,1.8-1.7,2.6-2.5&#10;&#9;&#9;c0.8-0.8,1.4-1.3,2-1.8c0.6-0.5,1-0.9,1.4-1.2c0.8-0.7,1.2-1,1.2-1L458.9,103.6z" style="fill: rgb(86, 161, 69);" transform="matrix(1.5397343635559082, 0, 0, 1.5397343635559082, -624.0098876953125, -102.00789451599121)"/><path class="st0" d="M451.6,97.5c0,0,4.9,17.4,28.5,10.4c23.4-6.9,28.5,12.3,28.5,12.3S499.1,72.4,451.6,97.5z" style="fill: rgb(86, 161, 69);" transform="matrix(1.5397343635559082, 0, 0, 1.5397343635559082, -624.0098876953125, -102.00789451599121)"/><path class="st0" d="M422.1,80.7c0,0,14.7-4.5,20,4c5.3,8.5,5.6,16.8,16.5,13.1C469.5,94,468.7,62.3,422.1,80.7z" style="fill: rgb(86, 161, 69);" transform="matrix(1.5397343635559082, 0, 0, 1.5397343635559082, -624.0098876953125, -102.00789451599121)"/>







<path class="st1" d="M1293.1,718.1l-41.5,47l28.7-1.2l-33.3,6.5l0-0.1l-16.5,18.8l28.7-1.2l-33.3,6.5l0-0.1l-16.5,18.8l28.7-1.2&#10;&#9;&#9;l-33.3,6.5l0-0.1l-16.5,18.8l28.7-1.2l-33.3,6.5l0-0.1l-16.5,18.8l28.7-1.2l-33.3,6.5l0-0.1l-16.5,18.8l28.7-1.2l-33.3,6.5l0-0.1&#10;&#9;&#9;l-12.8,14.6c45.4-1.6,90-21.2,122.3-57.9C1283.3,810,1297.1,763.3,1293.1,718.1z" style="fill: rgb(115, 255, 59);" transform="matrix(1, 0, 0, 1, -1035.885986328125, -641.0907649993896)"/><path class="st0" d="M1137.9,886.4l2.2-33.2l2.4,27.9l16.5-18.7l2.2-33.2l2.4,27.9l16.5-18.7l2.2-33.2l2.4,27.9l16.5-18.7&#10;&#9;&#9;&#9;l2.2-33.2l2.4,27.9l16.5-18.7l2.2-33.2l2.4,27.9l16.5-18.7l2.2-33.2l2.4,27.9l41.1-46.7c-45.4,1.6-90,21.2-122.4,57.9&#10;&#9;&#9;&#9;c-32.4,36.7-46.2,83.4-42.1,128.6L1137.9,886.4z" style="fill: rgb(86, 161, 69);" transform="matrix(1, 0, 0, 1, -1035.885986328125, -641.0907649993896)"/>
<g transform="matrix(0.23098482191562653, 0, 0, 0.23098482191562653, -44.00365447998047, -0.18526649475097656)"><g id="g-1" transform="matrix(1, 0, 0, 1, 0, 0)">
	<g id="g-2">
		<path class="st0" d="M652,46c27.6,0,50,22.4,50,50s-22.4,50-50,50s-50-22.4-50-50S624.4,46,652,46z" style="fill: rgb(86, 161, 69);"/>
	</g>
</g></g><g transform="matrix(0.24099308252334595, 0, 0, 0.24099308252334595, 42.814613342285156, -108.3848934173584)"><g id="g-3" transform="matrix(1, 0, 0, 1, 0, 0)">
	<g id="g-4">
		<path class="st0" d="M362.4,563c-5.4,0-12-4-14.7-8.7l-16.6-29c-2.7-4.7-2.7-12.4,0-17.2l16.6-28.8c2.7-4.7,9.4-8.4,14.7-8.4h33.3&#10;&#9;&#9;&#9;c5.4,0,12,3.7,14.7,8.4l16.6,28.8c2.7,4.7,2.7,12.4,0,17.1l-16.6,29c-2.7,4.7-9.4,8.7-14.8,8.7H362.4z" style="fill: rgb(86, 161, 69);"/>
	</g>
</g></g><g transform="matrix(0.22512637078762054, 0, 0, 0.22512637078762054, 138.8326416015625, -100.41673851013184)"><g id="g-5" transform="matrix(1, 0, 0, 1, 0, 0)">
	<g id="g-6">
		<path class="st0" d="M143.7,542.8c1.1-4.1,2.8-8.1,4.9-11.8l3.3-6.2c1.5-3.7,1.5-7.9,0-11.7l-3.3-6.2c-2.1-3.7-3.8-7.7-4.9-11.8&#10;&#9;&#9;&#9;l-2-6.7c-1.6-3.7-4.5-6.7-8.3-8.3l-6.7-2c-4.1-1.1-8.1-2.8-11.8-4.9l-6.2-3.3c-3.7-1.5-7.9-1.5-11.7,0l-6.2,3.3&#10;&#9;&#9;&#9;c-3.7,2.1-7.6,3.8-11.8,4.9l-6.7,2c-3.7,1.6-6.7,4.5-8.3,8.3l-2,6.7c-1.1,4.1-2.8,8.1-4.9,11.8l-3.3,6.2c-1.5,3.7-1.5,7.9,0,11.7&#10;&#9;&#9;&#9;l3.3,6.2c2.1,3.7,3.8,7.6,4.9,11.8l2,6.7c1.6,3.7,4.5,6.7,8.3,8.3l6.7,2c4.1,1.1,8.1,2.8,11.8,4.9l6.2,3.3c3.7,1.5,7.9,1.5,11.7,0&#10;&#9;&#9;&#9;l6.2-3.3c3.7-2.1,7.7-3.8,11.8-4.9l6.7-2c3.7-1.6,6.7-4.5,8.3-8.3L143.7,542.8z" style="fill: rgb(86, 161, 69);"/>
	</g>
</g></g></svg>